<svg id="Layer_1" data-name="Layer 1" xmlns="http://www.w3.org/2000/svg" viewBox="0 0 600 389.4">
  <defs>
    <style>
      .cls-1 {
        fill: #76b536;
      }

      .cls-2 {
        font-size: 274.46px;
        fill: #fcfcfc;
        font-family: CeraPro-Medium, Cera Pro;
        font-weight: 500;
      }

      .cls-3 {
        letter-spacing: -0.03em;
      }

      .cls-4 {
        font-size: 91.49px;
        fill: #ebfdf2;
        font-family: Northwell-Alt, Northwell;
      }
    </style>
  </defs>
  <g id="Logo_dark_mode" data-name="Logo dark mode">
    <path class="cls-1" d="M373.24,25.26c-1.15.69-.92,7.72.39,13.36,2.16,9,5.48,13.83,12.51,18.16,5.49,3.47,8.5,8.57,10.28,17.61.77,4.09,2.39,24,1.93,24.49A7.61,7.61,0,0,1,396.81,97c-.78-1.16-2.79-3.79-4.41-5.72-1.77-2.16-2.93-4.33-2.93-5.56,0-2.55-2.48-5.18-4.87-5.18-4.94,0-7.26,6.34-3.24,9a6.4,6.4,0,0,0,3.78.93c2-.39,4.17,1.47,8.42,7.26,4.94,6.72,5.95,10.27,5.95,20.47,0,5.87-.31,9.5-.77,9.5s-.78-.54-.78-1.16c0-2.16-3.32-10.73-5.87-15-3.16-5.49-8.26-10.51-9.89-9.89-2.62,1,.24,10.51,6,20,7.88,13.13,10.2,20.24,9.35,29.2a81.6,81.6,0,0,1-1.08,8.5l-.62,2.7-1.08-2.7a81.31,81.31,0,0,1-2.55-7.73c-4-14.29-6.8-21.09-11.51-27.65-2.24-3.17-3.87-4-4.72-2.55-.84,1.31,1.09,15.83,2.71,20.54,1.62,4.87,3,7,10.12,15.45,6.41,7.65,7.11,9.51,6.26,16.15-.47,3.79-.93,5-1.32,3.94a32.54,32.54,0,0,0-2-4.25,8.83,8.83,0,0,1-1-4.71,3.93,3.93,0,0,0-3.63-4.56,4.28,4.28,0,0,0-3.86,3.86c0,1.7,2,3.87,3.55,3.87,2.63,0,6.64,11.89,6.33,18.69l-.23,4.87-1.77-4.79c-2.32-6.41-6.65-12.67-11.13-16.07-4.63-3.63-6.49-3.4-6.18.77.39,4.87,3.4,10.28,9.81,17.77,8.89,10.43,8.42,8.73,8.42,29.51.08,9.89-.07,18-.31,18s-.92-1.16-1.39-2.63c-1.62-4.48-8.19-13.83-12.12-17.22-4.41-3.94-11.13-7.42-13.68-7-1.62.23-1.77.61-1.54,3.55.46,7.26,6.72,15.6,16.61,22.25,11.27,7.64,13.13,10.43,14.06,21.16.23,3.17,1.15,10,2,15.07s1.78,10.5,2,12c.54,3.4,1.7,4.94,2.94,3.86.69-.54.54-2.31-.47-7.49-1.62-7.88-4.32-27.81-4.79-34.84l-.23-4.87,5.1-5.64c8-8.72,12.36-15.75,13.75-21.93,1-4.33.31-5.1-3.4-4.1a17,17,0,0,0-9,5.87c-2.32,2.78-6,9.89-6,11.59,0,.62-.31,1.16-.78,1.16s-.54-3.56-.31-9.12c.47-8.34.62-9.34,2.79-12.74,2.62-4.1,9-10.05,10.19-9.58,3.4,1.31,4.25,1.23,6.11-.31,2.78-2.16,2.78-5.41.07-7.57a7.18,7.18,0,0,0-3-1.62c-1.78,0-5,3.16-5,4.94,0,1.24-1,2.47-3.09,3.94a19.81,19.81,0,0,0-4.25,4c-2.86,4.25-1.78.61,2.16-7.73,2.32-4.86,4.48-9.5,4.72-10.27s1.62-2,2.93-2.63a9.83,9.83,0,0,0,3.25-2.47c1.15-1.85-.31-5.41-2.63-6.57-1.08-.54-1.55-1-1.08-1,1.7,0,8.57-7.73,10.66-12,2.32-4.78,4.09-14.05,2.86-15.29-.47-.46-1.86.15-3.63,1.47-3.4,2.62-13.06,13.52-16.61,18.69l-2.4,3.63.39-3.09c.23-1.7.69-6.25,1-10,.77-9.89,3.71-14.91,10.51-17.69,3.86-1.62,5.48-1.55,7.18.31,2.86,3.17,8.27.93,8.27-3.48a4.75,4.75,0,0,0-8.5-3.09,4.79,4.79,0,0,1-2.78,1.93c-1.78,0-7.57,2.4-9.19,3.71-4,3.48,2.7-8,7.72-13.13,3.09-3.09,3.86-3.55,5.95-3.17,2.86.47,4.48-1,4.48-4,0-5.09-5.64-5.79-8.26-1a58.21,58.21,0,0,1-5.1,6.95,75.75,75.75,0,0,0-6.11,8L401.67,135l.47-8.88c.61-11,1.08-11.82,9.81-15.53,9.5-4.09,16.84-11.12,13.75-13.13-1.78-1.24-9.2-.08-13.68,2.08a32.38,32.38,0,0,0-7.18,5.18l-3,3.17v-3.48c0-3,.61-4.48,4.17-9.73,5.56-8.35,8.65-14.83,10.5-22.17,2-7.88,2-10.51.16-10.51-1.55,0-7.49,3.94-9.27,6.1a28.52,28.52,0,0,0-5.64,10.82L400.67,83l-.54-2.63c-.31-1.46-.78-5.64-1.08-9.27-.62-8.42.38-11.82,6.56-21.39,4.33-6.8,6.34-12,7.34-19.32.62-4.25-.85-4.94-4.79-2.16-8.42,5.79-14.06,13.6-14.06,19.47,0,1.47-.23,2.62-.62,2.55s-1.93-2.86-3.55-6.34c-2.39-5-4.33-7.65-9.42-12.74C377,27.65,373.71,25,373.24,25.26Zm27.81,152.57c.24,0,.85,1.08,1.32,2.39.77,2.09.62,2.86-1.32,6.72-1.15,2.4-2.7,5.8-3.4,7.42s-1.39,2.86-1.62,2.7a42.69,42.69,0,0,1,.39-7.18c.54-5,1.16-7.5,2.47-9.43A10.12,10.12,0,0,1,401.05,177.83Z" transform="translate(0 -14.26)"/>
    <text class="cls-2" transform="translate(0 227.8)">HE <tspan class="cls-3" x="428.15" y="0">P</tspan></text>
    <text class="cls-4" transform="translate(298.09 317.77)">My Plants</text>
  </g>
</svg>
