<svg id="Layer_1" data-name="Layer 1" xmlns="http://www.w3.org/2000/svg" viewBox="0 0 197.74 47.08">
  <defs>
    <style>
      .cls-1 {
        fill: #184a2c;
      }
    </style>
  </defs>
  <path class="cls-1" d="M199.34,9.29c-.52-.86-5.73-.69-9.92.28-6.65,1.61-10.26,4.07-13.47,9.29-2.58,4.07-6.36,6.3-13.07,7.62-3,.58-17.82,1.78-18.17,1.43a5.5,5.5,0,0,1,1.43-1.14c.86-.57,2.81-2.06,4.25-3.27,1.6-1.32,3.21-2.18,4.12-2.18a4.06,4.06,0,0,0,3.84-3.61c0-3.67-4.7-5.39-6.65-2.41a4.77,4.77,0,0,0-.68,2.81c.28,1.49-1.09,3.1-5.39,6.25-5,3.67-7.63,4.41-15.19,4.41-4.36,0-7-.22-7-.57s.4-.57.86-.57c1.6,0,8-2.47,11.12-4.36,4.07-2.35,7.79-6.13,7.34-7.34-.75-1.94-7.8.18-14.85,4.48-9.75,5.84-15,7.56-21.67,6.93a60.31,60.31,0,0,1-6.3-.8l-2-.46,2-.8a59.1,59.1,0,0,1,5.73-1.89c10.6-3,15.65-5.05,20.52-8.54,2.35-1.67,3-2.87,1.89-3.5s-11.75.8-15.25,2-5.21,2.23-11.46,7.5c-5.68,4.76-7,5.28-12,4.65-2.81-.35-3.73-.69-2.92-1A24.19,24.19,0,0,0,89.57,23a6.58,6.58,0,0,1,3.5-.74,2.92,2.92,0,0,0,3.38-2.7,3.18,3.18,0,0,0-2.87-2.86,3.29,3.29,0,0,0-2.86,2.63c0,1.95-8.83,4.93-13.88,4.7l-3.61-.17,3.56-1.32c4.75-1.72,9.4-4.93,11.92-8.25,2.69-3.44,2.52-4.82-.57-4.59C84.52,10,80.51,12.27,75,17c-7.74,6.6-6.48,6.25-21.89,6.25-7.34.06-13.36-.06-13.36-.23s.86-.69,1.95-1c3.32-1.2,10.26-6.08,12.78-9,2.92-3.27,5.5-8.25,5.22-10.14-.17-1.21-.46-1.32-2.64-1.15-5.39.34-11.58,5-16.51,12.32-5.67,8.37-7.74,9.75-15.7,10.44-2.35.17-7.4.86-11.18,1.49L4.73,27.46c-2.52.4-3.66,1.26-2.86,2.17.4.52,1.72.41,5.56-.34,5.84-1.2,20.63-3.21,25.85-3.55l3.61-.18,4.19,3.79c6.47,6,11.69,9.17,16.27,10.2,3.21.75,3.79.23,3-2.52A12.57,12.57,0,0,0,56,30.38c-2.07-1.72-7.34-4.47-8.6-4.47-.46,0-.86-.23-.86-.57s2.63-.41,6.76-.23c6.19.34,6.94.45,9.46,2.06,3,1.95,7.45,6.65,7.11,7.57-1,2.52-.92,3.15.23,4.52a3.34,3.34,0,0,0,5.61.06A5.36,5.36,0,0,0,77,37.09c0-1.32-2.35-3.73-3.67-3.73-.92,0-1.83-.74-2.92-2.29a14.59,14.59,0,0,0-3-3.16c-3.16-2.12-.46-1.31,5.73,1.61,3.61,1.72,7,3.32,7.62,3.5a4.35,4.35,0,0,1,2,2.17,7.13,7.13,0,0,0,1.83,2.41c1.38.86,4-.23,4.88-2,.4-.8.74-1.14.74-.8,0,1.26,5.73,6.36,8.89,7.91,3.55,1.72,10.43,3,11.35,2.12.34-.34-.12-1.37-1.09-2.69-2-2.52-10-9.69-13.87-12.33l-2.7-1.77,2.29.28c1.27.18,4.65.52,7.46.75,7.33.57,11.06,2.75,13.12,7.79,1.21,2.87,1.15,4.07-.23,5.34-2.35,2.12-.68,6.13,2.58,6.13a3.52,3.52,0,0,0,2.3-6.31A3.53,3.53,0,0,1,118.8,40c0-1.32-1.77-5.62-2.75-6.82-2.58-3,5.9,2,9.75,5.73,2.29,2.29,2.63,2.87,2.35,4.41-.35,2.13.74,3.33,3,3.33,3.78,0,4.3-4.19.74-6.13a43.66,43.66,0,0,1-5.16-3.79,57.57,57.57,0,0,0-5.9-4.53l-2.87-1.83,6.59.34c8.2.46,8.77.81,11.53,7.28,3,7,8.25,12.5,9.74,10.21.92-1.32.06-6.82-1.55-10.15a23.81,23.81,0,0,0-3.84-5.33l-2.35-2.24h2.58c2.24,0,3.33.46,7.22,3.1,6.19,4.13,11,6.42,16.46,7.8,5.84,1.49,7.79,1.49,7.79.11,0-1.15-2.92-5.56-4.53-6.88a21.13,21.13,0,0,0-8-4.18l-3.1-.81,1.95-.4c1.09-.23,4.19-.57,6.88-.8,6.25-.46,8.77.29,15.88,4.87a32.48,32.48,0,0,0,14.33,5.45c3.15.46,3.67-.63,1.6-3.56C192.8,29,187,24.76,182.66,24.76c-1.09,0-1.95-.17-1.89-.46s2.12-1.43,4.7-2.63c3.72-1.78,5.67-3.21,9.45-7C197.56,12,199.57,9.63,199.34,9.29ZM86.13,29.92c0,.17-.8.63-1.78,1-1.55.57-2.12.45-5-1-1.78-.86-4.3-2-5.51-2.52s-2.12-1-2-1.2a31.23,31.23,0,0,1,5.33.28c3.72.4,5.56.86,7,1.84A7.43,7.43,0,0,1,86.13,29.92Z" transform="translate(-1.61 -1.66)"/>
</svg>
